<svg xmlns="http://www.w3.org/2000/svg" width="256" height="256" viewBox="0 0 256 256" version="1.1">
	<path d="M 134.789 1.551 C 131.473 3.352, 122.330 18.391, 116.911 30.960 C 110.440 45.971, 109.004 52.585, 109.269 66.172 C 109.468 76.357, 109.289 77.941, 108 77.444 C 103.483 75.702, 93.688 74.030, 88 74.030 C 46.553 74.030, 19.182 118.705, 38.234 155.260 C 40.022 158.692, 41.621 161.784, 41.786 162.130 C 41.951 162.477, 39.586 164.172, 36.529 165.897 C 25.409 172.172, 5.484 194.191, 1.387 204.732 C -0.538 209.685, 0.580 213.840, 4.539 216.433 C 7.176 218.161, 20.982 219.981, 31.500 219.988 C 37.824 219.992, 52.300 218.042, 57.571 216.476 C 59.392 215.935, 59.869 216.612, 61.530 222.099 C 71.929 256.443, 114.929 267.231, 140.299 241.861 L 146.205 235.955 153.300 240.628 C 160.920 245.649, 175.200 252.966, 181.164 254.906 C 185.620 256.356, 191.129 254.496, 193.059 250.890 C 195.371 246.570, 192.304 217.775, 188.467 207.775 C 188.013 206.590, 188.698 206.011, 191.179 205.483 C 197.062 204.232, 208.345 198.444, 214.095 193.730 C 217.172 191.207, 221.794 186.063, 224.366 182.299 C 240.325 158.942, 237.536 129.406, 217.471 109.270 L 210.266 102.041 215.883 98.889 C 228.010 92.085, 240.937 75.827, 251.161 54.521 C 257.315 41.696, 256.433 34.618, 248.348 31.950 C 241.058 29.544, 210.775 33.700, 197.741 38.894 C 187.778 42.865, 182.756 46.004, 176.250 52.328 C 171.379 57.063, 171 57.254, 171 54.963 C 171 44.452, 155.487 10.632, 147.280 3.250 C 143.258 -0.368, 139.313 -0.904, 134.789 1.551" stroke="none" fill="black" fill-rule="evenodd"/>
</svg>